<?xml version="1.0" standalone="no"?>
<!DOCTYPE svg PUBLIC "-//W3C//DTD SVG 20010904//EN"
 "http://www.w3.org/TR/2001/REC-SVG-20010904/DTD/svg10.dtd">
<svg version="1.0" xmlns="http://www.w3.org/2000/svg"
 width="512.000000pt" height="512.000000pt" viewBox="0 0 512.000000 512.000000"
 preserveAspectRatio="xMidYMid meet">
<metadata>
Created by potrace 1.16, written by Peter Selinger 2001-2019
</metadata>
<g transform="translate(0.000000,512.000000) scale(0.100000,-0.100000)"
fill="#000000" stroke="none">
<path d="M560 2880 l0 -160 2000 0 2000 0 0 160 0 160 -2000 0 -2000 0 0 -160z"/>
<path d="M632 2300 c-18 -11 -41 -34 -52 -52 -19 -31 -20 -51 -20 -288 0 -237
1 -257 20 -288 32 -52 74 -72 153 -72 l67 0 0 -280 0 -280 -120 0 -120 0 0
-160 0 -160 40 0 40 0 0 -360 0 -360 80 0 80 0 0 360 0 360 400 0 400 0 0
-360 0 -360 80 0 80 0 0 360 0 360 40 0 40 0 0 160 0 160 -120 0 -120 0 0 280
0 280 68 0 c78 0 120 20 152 72 19 31 20 51 20 288 0 237 -1 257 -20 288 -11
18 -34 41 -52 52 -32 19 -52 20 -568 20 -516 0 -536 -1 -568 -20z m808 -980
l0 -280 -240 0 -240 0 0 280 0 280 240 0 240 0 0 -280z"/>
<path d="M3352 2300 c-18 -11 -41 -34 -52 -52 -19 -31 -20 -51 -20 -288 0
-237 1 -257 20 -288 32 -52 74 -72 153 -72 l67 0 0 -280 0 -280 -120 0 -120 0
0 -160 0 -160 40 0 40 0 0 -360 0 -360 80 0 80 0 0 360 0 360 400 0 400 0 0
-360 0 -360 80 0 80 0 0 360 0 360 40 0 40 0 0 160 0 160 -120 0 -120 0 0 280
0 280 68 0 c78 0 120 20 152 72 19 31 20 51 20 288 0 237 -1 257 -20 288 -11
18 -34 41 -52 52 -32 19 -52 20 -568 20 -516 0 -536 -1 -568 -20z m808 -980
l0 -280 -240 0 -240 0 0 280 0 280 240 0 240 0 0 -280z"/>
<path d="M160 1040 l0 -720 80 0 80 0 0 720 0 720 -80 0 -80 0 0 -720z"/>
<path d="M2080 1040 l0 -720 80 0 80 0 0 720 0 720 -80 0 -80 0 0 -720z"/>
<path d="M2880 1040 l0 -720 80 0 80 0 0 720 0 720 -80 0 -80 0 0 -720z"/>
<path d="M4800 1040 l0 -720 80 0 80 0 0 720 0 720 -80 0 -80 0 0 -720z"/>
</g>
</svg>
