<?xml version="1.0" standalone="no"?>
<!DOCTYPE svg PUBLIC "-//W3C//DTD SVG 20010904//EN"
 "http://www.w3.org/TR/2001/REC-SVG-20010904/DTD/svg10.dtd">
<svg version="1.0" xmlns="http://www.w3.org/2000/svg"
 width="512.000000pt" height="512.000000pt" viewBox="0 0 512.000000 512.000000"
 preserveAspectRatio="xMidYMid meet">
<metadata>
Created by potrace 1.16, written by Peter Selinger 2001-2019
</metadata>
<g transform="translate(0.000000,512.000000) scale(0.100000,-0.100000)"
fill="#000000" stroke="none">
<path d="M1444 4826 l-34 -34 0 -948 0 -947 174 -232 174 -232 25 -593 25
-594 -199 -210 -198 -211 -1 -128 0 -129 34 -34 c34 -34 35 -34 125 -34 l90 0
3 -123 3 -122 240 0 240 0 3 123 3 122 409 0 409 0 3 -122 3 -123 240 0 240 0
3 123 3 122 90 0 c90 0 91 0 125 34 l34 34 0 129 -1 128 -198 211 -199 211 25
593 26 594 173 231 174 232 0 947 0 948 -34 34 -34 34 -1082 0 -1082 0 -34
-34z m1866 -571 l0 -115 -750 0 -750 0 0 115 0 115 750 0 750 0 0 -115z m0
-480 l0 -115 -750 0 -750 0 0 115 0 115 750 0 750 0 0 -115z m0 -480 l0 -115
-750 0 -750 0 0 115 0 115 750 0 750 0 0 -115z m-640 -1177 c90 -27 167 -94
217 -190 25 -48 28 -63 28 -153 0 -89 -3 -106 -28 -157 -35 -72 -104 -140
-176 -175 -49 -24 -68 -27 -151 -27 -83 0 -102 3 -150 27 -71 34 -143 106
-178 177 -24 49 -27 66 -27 155 0 90 3 105 28 153 89 168 261 243 437 190z"/>
</g>
</svg>
