<?xml version="1.0" standalone="no"?>
<!DOCTYPE svg PUBLIC "-//W3C//DTD SVG 20010904//EN"
 "http://www.w3.org/TR/2001/REC-SVG-20010904/DTD/svg10.dtd">
<svg version="1.0" xmlns="http://www.w3.org/2000/svg"
 width="512.000000pt" height="512.000000pt" viewBox="0 0 512.000000 512.000000"
 preserveAspectRatio="xMidYMid meet">
<metadata>
Created by potrace 1.16, written by Peter Selinger 2001-2019
</metadata>
<g transform="translate(0.000000,512.000000) scale(0.100000,-0.100000)"
fill="#000000" stroke="none">
<path d="M922 4198 c-17 -17 -17 -3259 0 -3276 17 -17 3259 -17 3276 0 17 17
17 3259 0 3276 -17 17 -3259 17 -3276 0z m2966 -310 c17 -17 17 -2639 0 -2656
-17 -17 -2639 -17 -2656 0 -17 17 -17 2639 0 2656 17 17 2639 17 2656 0z"/>
<path d="M2175 3655 l-25 -24 0 -261 0 -261 25 -24 c24 -24 28 -25 180 -25 86
0 165 4 175 10 27 14 41 62 26 91 -19 38 -53 49 -158 49 l-98 0 0 160 0 160
98 0 c105 0 139 11 158 49 15 29 1 77 -26 91 -10 6 -89 10 -175 10 -152 0
-156 -1 -180 -25z"/>
<path d="M2639 3661 l-24 -19 0 -272 0 -272 24 -19 c32 -26 67 -24 96 6 23 22
25 32 25 115 l0 90 94 0 c51 0 107 5 124 11 46 16 54 48 50 204 -4 182 5 175
-208 175 -140 0 -160 -2 -181 -19z"/>
<path d="M3107 3668 c-32 -25 -37 -68 -37 -297 0 -235 6 -283 40 -301 10 -6
89 -10 175 -10 152 0 156 1 180 25 l25 24 0 261 0 261 -25 24 c-31 32 -69 32
-100 0 -25 -24 -25 -24 -25 -235 l0 -210 -60 0 -60 0 0 210 c0 211 0 211 -25
235 -26 27 -62 32 -88 13z"/>
<path d="M1390 1701 c-5 -11 -10 -81 -10 -156 0 -75 5 -145 10 -156 10 -18 23
-19 178 -19 172 0 192 4 192 40 0 21 -317 310 -341 310 -10 0 -23 -9 -29 -19z"/>
</g>
</svg>
