<?xml version="1.0" standalone="no"?>
<!DOCTYPE svg PUBLIC "-//W3C//DTD SVG 20010904//EN"
 "http://www.w3.org/TR/2001/REC-SVG-20010904/DTD/svg10.dtd">
<svg version="1.0" xmlns="http://www.w3.org/2000/svg"
 width="512.000000pt" height="512.000000pt" viewBox="0 0 512.000000 512.000000"
 preserveAspectRatio="xMidYMid meet">

<g transform="translate(0.000000,512.000000) scale(0.100000,-0.100000)"
fill="#000000" stroke="none">
<path d="M3250 4250 l0 -280 -380 0 -380 0 0 -145 0 -145 70 0 70 0 0 70 0 70
385 0 385 0 0 355 0 355 -75 0 -75 0 0 -280z"/>
<path d="M2490 3505 l0 -75 70 0 70 0 0 75 0 75 -70 0 -70 0 0 -75z"/>
<path d="M2490 3295 l0 -35 -1245 0 -1245 0 0 -960 0 -960 75 0 75 0 0 885 0
885 1796 0 1797 0 -7 53 c-3 28 -6 62 -6 75 l0 22 -550 0 -550 0 0 35 0 35
-70 0 -70 0 0 -35z"/>
<path d="M3886 3208 c-3 -29 -6 -63 -6 -75 l0 -23 545 0 545 0 0 -1185 0
-1185 -2410 0 -2410 0 0 230 0 230 -22 0 c-13 0 -47 -3 -75 -6 l-53 -7 0 -298
0 -299 2560 0 2560 0 0 1335 0 1335 -614 0 -613 0 -7 -52z"/>
<path d="M4062 2958 l3 -73 75 0 75 0 3 73 3 72 -81 0 -81 0 3 -72z"/>
<path d="M4312 2958 l3 -73 75 0 75 0 3 73 3 72 -81 0 -81 0 3 -72z"/>
<path d="M4562 2958 l3 -73 75 0 75 0 3 73 3 72 -81 0 -81 0 3 -72z"/>
<path d="M400 2545 l0 -265 265 0 265 0 0 265 0 265 -265 0 -265 0 0 -265z
m380 5 l0 -110 -115 0 -115 0 0 110 0 110 115 0 115 0 0 -110z"/>
<path d="M1160 2545 l0 -265 1019 0 1018 0 7 61 c8 79 8 348 0 417 l-7 52
-1018 0 -1019 0 0 -265z m380 5 l0 -110 -115 0 -115 0 0 110 0 110 115 0 115
0 0 -110z m380 0 l0 -110 -115 0 -115 0 0 110 0 110 115 0 115 0 0 -110z m370
0 l0 -110 -110 0 -110 0 0 110 0 110 110 0 110 0 0 -110z m380 0 l0 -110 -110
0 -110 0 0 110 0 110 110 0 110 0 0 -110z m380 0 l0 -110 -110 0 -110 0 0 110
0 110 110 0 110 0 0 -110z"/>
<path d="M3430 2360 l0 -450 645 0 645 0 0 450 0 450 -645 0 -645 0 0 -450z"/>
<path d="M400 1505 l0 -645 1399 0 1398 0 7 61 c8 80 8 1107 0 1177 l-7 52
-1398 0 -1399 0 0 -645z m380 385 l0 -110 -50 0 -50 0 0 110 0 110 50 0 50 0
0 -110z m380 0 l0 -110 -115 0 -115 0 0 110 0 110 115 0 115 0 0 -110z m380 0
l0 -110 -115 0 -115 0 0 110 0 110 115 0 115 0 0 -110z m370 0 l0 -110 -110 0
-110 0 0 110 0 110 110 0 110 0 0 -110z m380 0 l0 -110 -110 0 -110 0 0 110 0
110 110 0 110 0 0 -110z m380 0 l0 -110 -110 0 -110 0 0 110 0 110 110 0 110
0 0 -110z m380 0 l0 -110 -110 0 -110 0 0 110 0 110 110 0 110 0 0 -110z
m-2270 -380 l0 -110 -50 0 -50 0 0 110 0 110 50 0 50 0 0 -110z m380 0 l0
-110 -115 0 -115 0 0 110 0 110 115 0 115 0 0 -110z m380 0 l0 -110 -115 0
-115 0 0 110 0 110 115 0 115 0 0 -110z m370 0 l0 -110 -110 0 -110 0 0 110 0
110 110 0 110 0 0 -110z m380 0 l0 -110 -110 0 -110 0 0 110 0 110 110 0 110
0 0 -110z m380 0 l0 -110 -110 0 -110 0 0 110 0 110 110 0 110 0 0 -110z m380
0 l0 -110 -110 0 -110 0 0 110 0 110 110 0 110 0 0 -110z m-2270 -380 l0 -110
-50 0 -50 0 0 110 0 110 50 0 50 0 0 -110z m1890 0 l0 -110 -50 0 -50 0 0 110
0 110 50 0 50 0 0 -110z m380 0 l0 -110 -110 0 -110 0 0 110 0 110 110 0 110
0 0 -110z m-1300 0 l0 -80 -300 0 -300 0 0 73 c0 41 3 77 7 80 3 4 138 7 300
7 l293 0 0 -80z m250 0 l0 -80 -75 0 -75 0 0 80 0 80 75 0 75 0 0 -80z m250 0
l0 -80 -75 0 -75 0 0 80 0 80 75 0 75 0 0 -80z"/>
<path d="M3810 1580 l0 -190 -190 0 -190 0 0 -265 0 -265 645 0 645 0 0 265 0
265 -98 0 c-55 0 -140 3 -190 6 l-92 7 0 183 0 184 -265 0 -265 0 0 -190z
m380 -70 l0 -110 -115 0 -115 0 0 110 0 110 115 0 115 0 0 -110z m-380 -380
l0 -110 -110 0 -110 0 0 110 0 110 110 0 110 0 0 -110z m380 0 l0 -110 -115 0
-115 0 0 110 0 110 115 0 115 0 0 -110z m380 0 l0 -110 -115 0 -115 0 0 110 0
110 115 0 115 0 0 -110z"/>
<path d="M190 1245 l0 -265 80 0 80 0 0 265 0 265 -80 0 -80 0 0 -265z"/>
</g>
</svg>
