<?xml version="1.0" standalone="no"?>
<!DOCTYPE svg PUBLIC "-//W3C//DTD SVG 20010904//EN"
 "http://www.w3.org/TR/2001/REC-SVG-20010904/DTD/svg10.dtd">
<svg version="1.0" xmlns="http://www.w3.org/2000/svg"
 width="512.000000pt" height="512.000000pt" viewBox="0 0 512.000000 512.000000"
 preserveAspectRatio="xMidYMid meet">

<g transform="translate(0.000000,512.000000) scale(0.100000,-0.100000)"
fill="#000000" stroke="none">
<path d="M105 4704 c-45 -23 -66 -45 -86 -89 -18 -38 -19 -104 -19 -1467 l0
-1428 2560 0 2560 0 0 1428 c0 1372 -1 1429 -19 1468 -10 23 -36 54 -57 70
l-37 29 -2436 2 c-2195 3 -2439 1 -2466 -13z m4755 -1484 l0 -1240 -2300 0
-2300 0 0 1240 0 1240 2300 0 2300 0 0 -1240z"/>
<path d="M1390 4273 c-61 -22 -79 -95 -35 -138 24 -25 25 -25 233 -25 195 0
210 1 230 20 46 43 37 109 -18 137 -25 13 -378 18 -410 6z"/>
<path d="M2083 4265 c-53 -23 -62 -92 -17 -132 24 -22 32 -23 228 -23 187 0
205 2 228 20 50 39 37 118 -22 139 -49 17 -376 14 -417 -4z"/>
<path d="M2790 4268 c-55 -29 -64 -95 -18 -138 20 -19 35 -20 230 -20 208 0
209 0 233 25 34 33 34 83 -1 116 -25 24 -30 24 -222 27 -145 2 -204 -1 -222
-10z"/>
<path d="M3501 4269 c-55 -22 -69 -92 -26 -134 24 -25 25 -25 224 -25 127 0
209 4 225 11 49 23 57 97 14 136 -18 16 -42 18 -217 20 -112 1 -206 -2 -220
-8z"/>
<path d="M4199 4265 c-33 -18 -52 -66 -39 -99 19 -52 38 -56 258 -56 202 0
203 0 227 25 44 43 30 114 -26 134 -50 17 -387 14 -420 -4z"/>
</g>
</svg>
