<?xml version="1.0" standalone="no"?>
<!DOCTYPE svg PUBLIC "-//W3C//DTD SVG 20010904//EN"
 "http://www.w3.org/TR/2001/REC-SVG-20010904/DTD/svg10.dtd">
<svg version="1.0" xmlns="http://www.w3.org/2000/svg"
 width="512.000000pt" height="512.000000pt" viewBox="0 0 512.000000 512.000000"
 preserveAspectRatio="xMidYMid meet">

<g transform="translate(0.000000,512.000000) scale(0.100000,-0.100000)"
fill="#000000" stroke="none">
<path d="M2370 5003 c-470 -61 -888 -322 -1147 -715 -139 -211 -220 -434 -252
-698 -15 -113 -15 -1932 -1 -2055 72 -621 482 -1135 1069 -1339 192 -67 279
-80 521 -80 184 0 229 3 316 22 503 109 915 432 1129 885 77 162 123 326 145
512 13 121 13 1929 0 2050 -37 322 -159 608 -366 856 -227 273 -544 462 -903
540 -73 16 -141 21 -286 24 -104 2 -206 1 -225 -2z m80 -378 l0 -164 -37 -18
c-52 -24 -114 -88 -143 -148 l-25 -50 0 -405 0 -405 35 -64 c32 -60 103 -127
153 -144 15 -6 17 -23 17 -177 l0 -170 -640 0 -640 0 0 279 c0 318 10 442 46
590 123 497 504 879 1003 1006 102 26 134 31 194 34 l37 1 0 -165z m362 150
c270 -47 526 -182 728 -385 233 -232 366 -516 400 -849 5 -57 10 -229 10 -382
l0 -279 -640 0 -640 0 0 170 0 169 33 16 c58 27 102 72 138 137 l34 63 0 405
0 405 -34 63 c-36 65 -80 110 -138 137 l-33 16 0 164 0 165 29 0 c15 0 67 -7
113 -15z m-207 -521 c63 -29 65 -44 65 -414 0 -370 -2 -385 -65 -414 -41 -20
-49 -20 -90 0 -63 29 -65 44 -65 414 0 368 2 384 63 414 40 20 51 20 92 0z
m1340 -2139 c0 -612 -3 -641 -70 -842 -210 -628 -828 -1021 -1480 -942 -533
65 -979 430 -1150 942 -65 196 -67 215 -72 820 -3 302 -2 555 1 563 5 12 193
14 1388 12 l1383 -3 0 -550z"/>
</g>
</svg>
