<?xml version="1.0" standalone="no"?>
<!DOCTYPE svg PUBLIC "-//W3C//DTD SVG 20010904//EN"
 "http://www.w3.org/TR/2001/REC-SVG-20010904/DTD/svg10.dtd">
<svg version="1.0" xmlns="http://www.w3.org/2000/svg"
 width="512.000000pt" height="512.000000pt" viewBox="0 0 512.000000 512.000000"
 preserveAspectRatio="xMidYMid meet">

<g transform="translate(0.000000,512.000000) scale(0.100000,-0.100000)"
fill="#000000" stroke="none">
<path d="M1115 5111 c-168 -43 -231 -239 -119 -370 18 -21 46 -44 63 -50 l29
-13 4 -108 c5 -164 -33 -150 405 -150 l363 0 0 -85 0 -85 -879 -2 c-876 -3
-880 -3 -908 -24 -15 -12 -37 -36 -48 -55 -20 -34 -20 -52 -20 -1564 0 -1518
0 -1530 20 -1565 12 -21 39 -44 65 -58 l44 -22 2443 2 2442 3 27 21 c15 11 37
33 48 48 21 27 21 28 21 1571 l0 1544 -21 28 c-11 15 -36 38 -54 51 l-33 22
-873 0 -874 0 0 85 0 85 363 0 c438 0 400 -14 405 150 l4 108 29 13 c17 6 45
29 63 50 73 85 75 207 5 292 -107 130 -319 99 -383 -55 -20 -46 -21 -128 -2
-172 19 -45 70 -101 106 -116 29 -12 30 -15 30 -71 l0 -59 -359 0 c-338 0
-360 -1 -382 -19 -23 -18 -24 -26 -27 -155 l-4 -136 -239 0 -239 0 0 210 0
209 30 16 c90 47 141 151 120 249 -50 242 -390 242 -440 0 -21 -98 30 -202
120 -249 l30 -16 0 -209 0 -210 -240 0 -240 0 0 130 c0 126 -1 132 -25 155
l-24 25 -361 0 -360 0 0 59 c0 56 1 59 30 71 36 15 87 71 106 116 31 74 11
179 -44 237 -53 56 -148 86 -217 68z m745 -1453 l-1 -293 -127 -59 c-120 -57
-161 -81 -151 -89 2 -2 223 -108 490 -236 l486 -231 482 230 c265 126 489 234
498 239 14 7 -15 24 -130 80 l-147 71 0 290 0 290 756 0 c501 0 762 -3 775
-10 19 -11 19 -36 19 -1336 l0 -1324 -26 -10 c-35 -14 -4413 -14 -4448 0 l-26
10 0 1324 c0 1251 1 1326 18 1335 11 7 279 10 775 11 l757 0 0 -292z m628 150
l3 -136 -188 -92 c-104 -51 -212 -103 -240 -116 l-53 -24 0 255 0 255 238 -2
237 -3 3 -137z m622 -112 l0 -254 -237 113 -238 113 -3 128 c-1 70 0 134 2
141 4 10 57 13 241 13 l235 0 0 -254z"/>
<path d="M1192 300 c-71 -17 -122 -99 -108 -174 9 -48 59 -103 104 -116 24 -6
501 -10 1387 -10 l1350 0 39 23 c103 59 101 209 -4 264 l-43 23 -1346 -1
c-740 -1 -1361 -5 -1379 -9z"/>
</g>
</svg>
