<?xml version="1.0" standalone="no"?>
<!DOCTYPE svg PUBLIC "-//W3C//DTD SVG 20010904//EN"
 "http://www.w3.org/TR/2001/REC-SVG-20010904/DTD/svg10.dtd">
<svg version="1.0" xmlns="http://www.w3.org/2000/svg"
 width="512.000000pt" height="512.000000pt" viewBox="0 0 512.000000 512.000000"
 preserveAspectRatio="xMidYMid meet">

<g transform="translate(0.000000,512.000000) scale(0.100000,-0.100000)"
fill="#000000" stroke="none">
<path d="M2368 4910 c-139 -17 -232 -55 -311 -128 -43 -41 -106 -143 -108
-177 0 -5 -32 -30 -71 -55 -82 -52 -218 -192 -267 -273 -104 -176 -130 -311
-137 -717 l-5 -285 -32 -70 c-28 -63 -32 -80 -31 -160 1 -121 27 -188 103
-266 l56 -58 -17 -73 c-51 -213 -46 -401 12 -526 l30 -65 -38 -61 c-22 -34
-48 -76 -59 -95 -19 -30 -30 -36 -110 -56 -99 -25 -241 -86 -260 -112 -9 -11
-13 -55 -13 -128 l0 -111 -54 0 c-121 2 -181 -110 -178 -334 1 -133 27 -224
78 -275 32 -32 40 -35 94 -35 l60 0 0 -130 c0 -117 2 -132 20 -150 25 -25 24
-25 96 0 70 25 209 50 271 50 36 0 52 -6 83 -33 123 -104 301 -172 555 -213
137 -21 607 -30 784 -15 470 42 736 174 866 432 19 36 31 48 62 57 135 41 211
232 200 502 -3 76 -10 128 -21 153 -25 57 -80 112 -136 136 -43 18 -49 25 -45
44 6 26 285 1794 285 1807 0 17 -32 40 -55 40 -15 0 -30 -9 -39 -22 -8 -14
-66 -356 -140 -828 -70 -443 -129 -816 -132 -830 -5 -20 -12 -11 -54 68 -27
50 -58 105 -70 121 l-21 30 21 40 c56 112 65 331 21 518 l-23 92 50 50 c71 71
104 146 110 247 5 99 -13 170 -64 245 l-36 54 18 110 c26 154 26 503 1 629
-41 201 -120 366 -234 486 -178 190 -539 338 -895 370 -124 11 -124 11 -220 0z
m307 -121 c212 -32 460 -124 615 -229 113 -77 214 -207 265 -343 50 -134 68
-256 69 -457 0 -145 -15 -355 -27 -366 -1 -1 -25 5 -53 14 l-52 17 -4 235 c-4
202 -8 244 -25 297 -37 112 -106 203 -154 203 -11 0 -25 13 -34 30 -45 87
-200 218 -345 290 -221 111 -470 171 -707 171 l-133 0 16 24 c23 35 100 83
164 102 104 31 245 35 405 12z m-581 -839 c97 -141 261 -266 471 -357 75 -32
119 -56 118 -65 -2 -7 -13 -43 -25 -80 -23 -67 -23 -68 -59 -68 -35 0 -37 2
-44 38 -12 66 -57 146 -116 205 -158 158 -406 168 -577 22 l-42 -37 0 34 c1
91 42 213 97 285 22 29 107 93 123 93 4 0 28 -31 54 -70z m144 -326 c80 -26
142 -80 182 -158 31 -61 35 -77 34 -145 0 -55 -6 -89 -21 -122 -88 -195 -338
-252 -501 -114 -71 59 -104 138 -103 245 0 141 90 257 231 301 43 13 126 10
178 -7z m687 -159 c72 -22 99 -34 79 -35 -40 0 -89 -34 -131 -88 -40 -53 -43
-95 -9 -117 31 -20 46 -13 96 46 22 27 48 49 56 49 8 0 30 -22 49 -49 38 -52
58 -63 93 -50 29 11 37 50 17 88 -21 43 -91 111 -112 111 -9 0 -14 2 -11 5 2
3 39 -2 82 -10 43 -8 113 -15 157 -15 76 0 79 -1 85 -26 4 -14 4 -50 1 -79
-16 -158 -135 -272 -294 -283 -103 -7 -161 16 -239 93 -73 73 -99 139 -92 238
4 60 38 157 55 157 4 -1 58 -16 118 -35z m-1187 -575 c11 -47 24 -93 27 -102
11 -27 -41 -23 -103 8 -103 51 -159 152 -150 268 3 34 15 80 26 102 24 47 90
110 136 129 l31 13 6 -166 c5 -113 14 -194 27 -252z m1855 364 c95 -79 125
-218 73 -329 -36 -79 -138 -154 -208 -155 l-27 0 15 43 c31 85 44 188 44 343
l0 154 36 -15 c20 -8 50 -27 67 -41z m-944 -30 c36 -143 136 -252 278 -304 52
-19 77 -22 155 -18 106 5 179 32 255 95 l44 35 -6 -38 c-25 -151 -89 -297
-175 -401 -100 -120 -263 -222 -417 -260 -95 -23 -287 -23 -372 1 -86 23 -175
65 -247 114 -74 50 -189 171 -233 245 -43 73 -91 213 -98 285 l-6 57 29 -26
c138 -124 342 -145 500 -53 92 54 182 178 199 277 7 35 9 37 45 37 36 0 38 -1
49 -46z m493 -886 c14 -12 68 -185 68 -220 0 -15 -91 -49 -174 -64 l-39 -7 31
54 c37 66 62 148 62 206 0 35 3 43 18 43 10 0 25 -6 34 -12z m-1022 -69 c7
-43 27 -101 50 -146 l38 -75 -42 6 c-65 10 -176 48 -176 59 0 6 12 53 26 105
22 76 32 96 53 107 14 8 29 14 33 15 3 0 12 -32 18 -71z m156 -5 c202 -86 458
-82 686 11 16 7 17 4 4 -39 -82 -273 -427 -360 -631 -159 -46 46 -86 115 -100
176 -8 32 -9 32 41 11z m-11 -333 c52 -6 115 -21 149 -35 l59 -24 -49 -7 c-47
-7 -187 -39 -216 -50 -10 -4 -20 11 -32 52 -10 32 -21 64 -23 71 -3 7 0 10 8
8 8 -3 55 -10 104 -15z m775 2 c0 -12 -52 -147 -60 -156 -4 -5 -25 0 -46 11
-38 19 -139 53 -199 67 -18 5 -24 9 -15 12 8 2 42 15 75 29 71 28 245 55 245
37z m-1268 -187 c62 -13 163 -43 231 -71 16 -7 17 -40 17 -502 l0 -495 -37 7
c-21 4 -72 14 -113 21 -176 34 -451 28 -600 -11 l-50 -13 0 105 0 106 50 53
c79 83 108 176 89 281 -14 75 -40 125 -95 179 l-44 45 0 110 0 110 57 25 c137
61 336 81 495 50z m983 -11 c33 -9 86 -28 118 -42 l57 -26 0 -490 0 -489 -27
5 c-16 2 -71 12 -123 22 -126 23 -398 16 -545 -14 -55 -12 -101 -21 -102 -21
-2 0 -3 222 -3 494 l0 495 57 21 c54 20 172 54 223 64 53 10 286 -3 345 -19z
m1110 -204 c17 -9 40 -37 53 -61 22 -42 23 -53 19 -185 -6 -173 -29 -257 -82
-304 -43 -38 -72 -45 -137 -38 -239 29 -354 323 -196 502 72 82 161 119 263
108 28 -3 64 -12 80 -22z m-2760 -152 c55 -15 128 -92 143 -150 12 -49 3 -120
-23 -168 -25 -49 -97 -97 -154 -102 -30 -4 -37 0 -53 27 -10 17 -23 68 -30
113 -18 131 14 291 60 291 9 0 35 -5 57 -11z"/>
<path d="M2150 3423 c-56 -21 -130 -108 -130 -153 0 -33 17 -50 51 -50 21 0
35 10 60 45 51 71 81 68 130 -12 24 -39 65 -45 94 -13 24 26 14 56 -36 114
-60 67 -114 90 -169 69z"/>
<path d="M2363 2773 c-41 -8 -24 -32 50 -67 100 -48 182 -63 255 -46 105 23
220 86 198 108 -8 8 -467 13 -503 5z"/>
</g>
</svg>
